<svg width="26" height="20" viewBox="0 0 26 20" fill="none" xmlns="http://www.w3.org/2000/svg">
<path d="M23.91 9.16V3.16C23.9074 2.321 23.5722 1.51726 22.978 0.924933C22.3838 0.332604 21.579 -4.17145e-06 20.74 3.18311e-09H4.9C4.06444 -3.74151e-05 3.26265 0.329823 2.66901 0.91784C2.07538 1.50586 1.73791 2.30447 1.73 3.14V9.14C1.22629 9.37507 0.797803 9.74546 0.492327 10.2099C0.186851 10.6743 0.0164038 11.2144 0 11.77V19C5.58902e-09 19.2652 0.105357 19.5196 0.292893 19.7071C0.48043 19.8946 0.734783 20 1 20C1.26522 20 1.51957 19.8946 1.70711 19.7071C1.89464 19.5196 2 19.2652 2 19V17.61H23.64V19C23.64 19.2652 23.7454 19.5196 23.9329 19.7071C24.1204 19.8946 24.3748 20 24.64 20C24.9052 20 25.1596 19.8946 25.3471 19.7071C25.5346 19.5196 25.64 19.2652 25.64 19V11.79C25.6236 11.2344 25.4531 10.6943 25.1477 10.2299C24.8422 9.76546 24.4137 9.39507 23.91 9.16ZM3.73 3.16C3.72999 3.00682 3.76033 2.85516 3.81925 2.71377C3.87817 2.57237 3.96451 2.44405 4.07328 2.3362C4.18206 2.22835 4.31112 2.14312 4.45302 2.08541C4.59491 2.02771 4.74683 1.99868 4.9 2H20.74C20.8932 1.99868 21.0451 2.02771 21.187 2.08541C21.3289 2.14312 21.4579 2.22835 21.5667 2.3362C21.6755 2.44405 21.7618 2.57237 21.8208 2.71377C21.8797 2.85516 21.91 3.00682 21.91 3.16V8.83H20.48V7.49C20.48 6.85613 20.2282 6.24823 19.78 5.80001C19.3318 5.3518 18.7239 5.1 18.09 5.1H14.21C13.7109 5.10056 13.2247 5.25798 12.82 5.55C12.4153 5.25798 11.9291 5.10056 11.43 5.1H7.55C6.91613 5.1 6.30823 5.3518 5.86001 5.80001C5.4118 6.24823 5.16 6.85613 5.16 7.49V8.81H3.73V3.16ZM7.16 8.83V7.49C7.16 7.38657 7.20109 7.28737 7.27423 7.21423C7.34737 7.14109 7.44656 7.1 7.55 7.1H11.43C11.5334 7.1 11.6326 7.14109 11.7058 7.21423C11.7789 7.28737 11.82 7.38657 11.82 7.49V8.81L7.16 8.83ZM13.82 7.49C13.82 7.38657 13.8611 7.28737 13.9342 7.21423C14.0074 7.14109 14.1066 7.1 14.21 7.1H18.09C18.1934 7.1 18.2926 7.14109 18.3658 7.21423C18.4389 7.28737 18.48 7.38657 18.48 7.49V8.81H13.82V7.49ZM2 15.61V11.79C2.03033 11.4961 2.17557 11.2261 2.40408 11.0388C2.63259 10.8515 2.92586 10.7621 3.22 10.79H22.42C22.7141 10.7621 23.0074 10.8515 23.2359 11.0388C23.4644 11.2261 23.6097 11.4961 23.64 11.79V15.61H2Z" fill="#F62065"/>
</svg>
