<svg width="23" height="22" viewBox="0 0 23 22" fill="none" xmlns="http://www.w3.org/2000/svg">
<path d="M19.8329 1.76C19.6485 1.58733 19.4056 1.49087 19.1529 1.49H13.5029V1C13.5029 0.734784 13.3976 0.48043 13.21 0.292893C13.0225 0.105357 12.7682 0 12.5029 0H9.66294C9.39772 0 9.14336 0.105357 8.95583 0.292893C8.76829 0.48043 8.66294 0.734784 8.66294 1V4.49H3.01294C2.7603 4.49087 2.51736 4.58734 2.33294 4.76L0.332935 6.6C0.228183 6.69379 0.144388 6.80862 0.0870199 6.937C0.0296517 7.06537 0 7.20439 0 7.345C0 7.48561 0.0296517 7.62463 0.0870199 7.75301C0.144388 7.88138 0.228183 7.99621 0.332935 8.09L2.33294 9.8C2.51669 9.95716 2.75115 10.0424 2.99294 10.04H8.64294V20H6.58294C6.31772 20 6.06336 20.1054 5.87583 20.2929C5.68829 20.4804 5.58294 20.7348 5.58294 21C5.58294 21.2652 5.68829 21.5196 5.87583 21.7071C6.06336 21.8946 6.31772 22 6.58294 22H15.5829C15.8482 22 16.1025 21.8946 16.29 21.7071C16.4776 21.5196 16.5829 21.2652 16.5829 21C16.5829 20.7348 16.4776 20.4804 16.29 20.2929C16.1025 20.1054 15.8482 20 15.5829 20H13.5029V7H19.1529C19.3947 7.00242 19.6292 6.91716 19.8129 6.76L21.8129 5.05C21.9177 4.95621 22.0015 4.84138 22.0589 4.71301C22.1162 4.58463 22.1459 4.44561 22.1459 4.305C22.1459 4.16439 22.1162 4.02537 22.0589 3.897C22.0015 3.76862 21.9177 3.65379 21.8129 3.56L19.8329 1.76ZM8.65294 8H3.38294L2.53294 7.26L3.40294 6.45H8.65294V8ZM10.6529 20V2H11.4929V20H10.6529ZM18.7829 5H13.5129V3.49H18.7629L19.6329 4.3L18.7829 5Z" fill="#F62065"/>
</svg>
